<?xml version="1.0" encoding="iso-8859-1"?>
<!-- Uploaded to: SVG Repo, www.svgrepo.com, Generator: SVG Repo Mixer Tools -->
<svg height="32px" width="32px" version="1.1" id="Layer_1" xmlns="http://www.w3.org/2000/svg" xmlns:xlink="http://www.w3.org/1999/xlink" 
	 viewBox="0 0 392.646 392.646" xml:space="preserve">
<g>
	<path style="fill:#FFFFFF;" d="M244.913,313.794c38.012,0,68.978-30.966,68.978-68.978s-30.966-68.978-68.978-68.978
		s-68.978,30.966-68.978,68.978S206.901,313.794,244.913,313.794z"/>
	<path style="fill:#FFFFFF;" d="M154.085,244.816c0-50.101,40.727-90.764,90.764-90.764c7.822,0,15.386,1.099,22.626,3.038V56.242
		H108.38c-3.426,0-6.659-1.616-8.663-4.331l-22.82-30.061H21.883v223.547h132.202C154.085,245.204,154.085,244.945,154.085,244.816z
		"/>
</g>
<g>
	<path style="fill:#56ACE0;" d="M244.913,197.495c-26.053,0-47.192,21.204-47.192,47.192s21.204,47.192,47.192,47.192
		s47.192-21.204,47.192-47.192S270.901,197.495,244.913,197.495z"/>
	<path style="fill:#56ACE0;" d="M366.448,345.406l-47.838-47.838c-5.818,8.145-12.929,15.127-21.01,21.01l47.838,47.838
		c5.818,5.818,15.192,5.818,21.01,0S372.267,351.224,366.448,345.406z"/>
</g>
<path style="fill:#194F82;" d="M381.899,330.02l-52.493-52.493c3.943-10.214,6.206-21.269,6.206-32.776
	c0-33.939-18.683-63.547-46.352-79.127V45.253c0-6.012-4.848-10.925-10.925-10.925h-164.59L90.99,4.331
	C88.921,1.616,85.754,0,82.327,0h-71.37C4.945,0,0.032,4.848,0.032,10.925v245.398c0,6.012,4.848,10.925,10.925,10.925h145.972
	c10.02,39.24,45.576,68.396,87.855,68.396c11.572,0,22.562-2.263,32.776-6.206l52.493,52.493c14.287,14.287,37.56,14.287,51.846,0
	C396.186,367.58,396.186,344.242,381.899,330.02z M366.513,366.416c-5.818,5.818-15.192,5.818-21.01,0l-47.838-47.838
	c8.145-5.818,15.192-12.929,21.01-21.01l47.838,47.838C372.331,351.224,372.331,360.598,366.513,366.416z M21.883,21.786h54.949
	l22.82,30.061c2.069,2.715,5.236,4.331,8.663,4.331h159.16v100.784c-7.24-1.875-14.869-3.038-22.626-3.038
	c-50.101,0-90.764,40.727-90.764,90.764c0,0.259,0,0.388,0,0.646H21.883V21.786z M175.871,244.816
	c0-38.012,30.966-68.978,68.978-68.978s68.978,30.966,68.978,68.978s-30.966,68.978-68.978,68.978
	C206.901,313.794,175.871,282.828,175.871,244.816z"/>
<path style="fill:#FFC10D;" d="M92.154,77.899L66.036,43.572H43.669v64.388h46.158c6.012,0,10.925,4.848,10.925,10.925
	c0,6.012-4.848,10.925-10.925,10.925H43.669v19.394h24.824c6.012,0,10.925,4.848,10.925,10.925c0,6.012-4.848,10.925-10.925,10.925
	H43.669v52.622h113.002c9.632-39.887,45.511-69.624,88.242-69.624c0.323,0,0.517,0,0.84,0V77.899H92.154z"/>
</svg>