<?xml version="1.0" standalone="no"?>
<!DOCTYPE svg PUBLIC "-//W3C//DTD SVG 20010904//EN"
 "http://www.w3.org/TR/2001/REC-SVG-20010904/DTD/svg10.dtd">
<svg version="1.0" xmlns="http://www.w3.org/2000/svg"
 width="381.000000pt" height="381.000000pt" viewBox="0 0 381.000000 381.000000"
 preserveAspectRatio="xMidYMid meet">
<metadata>
Created by potrace 1.11, written by Peter Selinger 2001-2013
</metadata>
<g transform="translate(0.000000,381.000000) scale(0.100000,-0.100000)"
fill="#000000" stroke="none">
<path d="M1235 3039 c-357 -276 -659 -507 -670 -515 -14 -10 -17 -18 -10 -28
10 -15 276 -363 470 -616 392 -511 667 -873 672 -886 8 -20 18 -18 66 17 l42
31 47 -54 c26 -29 48 -56 48 -60 0 -18 26 -4 103 55 45 35 253 196 462 357
209 162 460 356 558 432 98 76 187 144 198 151 11 7 18 19 16 27 -2 8 -205
281 -452 605 -246 325 -502 663 -569 752 -66 89 -126 162 -132 163 -5 0 -28
-13 -51 -30 l-40 -30 -44 65 c-24 36 -48 65 -54 65 -5 -1 -302 -226 -660 -501z"/>
<path d="M720 650 c0 -189 2 -220 15 -220 9 0 15 9 15 25 l0 24 36 -24 c51
-34 96 -41 148 -21 47 18 66 35 89 80 l15 28 16 -30 c38 -73 139 -112 204 -78
18 9 32 12 32 6 0 -5 20 -10 45 -10 l45 0 0 41 0 42 21 -27 c28 -35 90 -66
134 -66 68 0 146 57 162 118 6 24 6 24 20 -9 18 -44 40 -67 85 -90 72 -37 167
-12 213 57 l21 31 15 -37 c26 -60 116 -90 167 -54 12 8 22 10 22 5 0 -6 18
-11 40 -11 l40 0 0 170 0 170 -45 0 -45 0 0 -114 c0 -127 -9 -150 -59 -144
-39 5 -51 39 -51 156 l0 102 -45 0 -45 0 0 -41 0 -42 -21 27 c-47 60 -138 82
-205 50 -43 -21 -94 -78 -94 -107 -1 -17 -4 -15 -16 13 -20 45 -41 68 -86 91
-68 35 -159 14 -207 -47 l-21 -27 0 92 0 91 -45 0 -45 0 -2 -47 c0 -27 -1 -53
-1 -59 0 -7 -10 -6 -29 4 -70 34 -172 -11 -209 -92 -13 -28 -19 -34 -19 -20 0
30 -67 92 -107 100 -50 9 -108 -1 -143 -26 l-30 -21 0 80 c0 65 -3 81 -15 81
-13 0 -15 -31 -15 -220z m231 57 c70 -47 77 -151 14 -214 -28 -28 -40 -33 -79
-33 -88 0 -136 47 -136 132 0 55 17 87 59 115 44 30 98 30 142 0z m309 -37
c72 -72 -3 -196 -92 -149 -26 14 -51 74 -42 102 19 63 92 89 134 47z m327 -2
c34 -37 37 -79 11 -118 -19 -27 -31 -36 -59 -38 -30 -3 -41 2 -63 28 -33 40
-33 80 0 119 32 39 80 42 111 9z m338 2 c13 -14 31 -20 62 -20 l43 0 0 -50 0
-50 -43 0 c-31 0 -49 -6 -62 -20 -28 -31 -78 -26 -109 11 -14 17 -26 42 -26
55 0 30 24 80 42 87 31 13 76 6 93 -13z"/>
<path d="M3460 820 c0 -38 -4 -50 -15 -50 -11 0 -15 -11 -15 -37 l-1 -38 -14
26 c-28 51 -118 75 -163 43 -12 -8 -22 -10 -22 -5 0 6 -18 11 -40 11 l-40 0 0
-62 0 -61 -23 44 c-41 76 -143 112 -215 75 -29 -15 -73 -59 -90 -91 -11 -18
-11 -19 -12 -2 0 32 -32 76 -66 92 -44 21 -93 19 -132 -5 l-33 -20 -28 21
c-23 17 -38 20 -73 15 -23 -3 -67 -5 -95 -5 l-53 0 0 -170 0 -171 44 0 44 0 3
113 c4 125 14 150 58 145 39 -5 51 -40 51 -155 l0 -103 45 0 45 0 0 108 c0
118 12 152 54 152 40 0 46 -17 46 -142 l0 -118 50 0 50 0 0 45 0 44 44 -44
c74 -74 160 -74 233 0 57 56 57 75 0 75 -31 0 -49 -6 -62 -20 -11 -12 -31 -20
-49 -20 -32 0 -76 24 -76 41 0 5 51 9 120 9 l120 0 0 -65 0 -65 45 0 45 0 0
114 c0 127 9 150 59 144 39 -5 51 -39 51 -155 l0 -103 46 0 46 0 -4 125 c-2
95 0 125 10 125 9 0 12 -32 12 -125 l0 -125 45 0 45 0 0 125 c0 113 2 125 18
125 11 0 18 -8 19 -22 3 -35 37 -72 81 -88 49 -18 67 -34 58 -49 -12 -19 -47
-12 -53 9 -4 16 -14 20 -49 20 -41 0 -44 -2 -44 -28 0 -91 130 -134 201 -66
25 24 29 35 29 81 0 63 -15 82 -84 108 -25 10 -46 24 -46 31 0 19 24 18 40 -1
15 -19 79 -20 86 -2 9 24 -15 67 -48 87 -46 28 -90 26 -127 -6 -30 -25 -31
-25 -31 -5 0 16 -6 21 -25 21 -23 0 -25 3 -25 50 l0 50 -45 0 -45 0 0 -50z
m-428 -147 c30 -27 21 -33 -52 -33 -38 0 -70 3 -70 7 0 3 7 15 17 25 20 23 80
24 105 1z"/>
<path d="M475 749 c-11 -6 -30 -21 -43 -33 l-23 -21 10 28 c9 23 8 27 -8 27
-14 0 -25 -19 -45 -77 -15 -43 -36 -100 -46 -128 l-18 -50 -14 35 c-8 19 -25
68 -38 108 -17 49 -29 72 -39 70 -8 -2 -29 -46 -49 -106 -19 -57 -38 -100 -42
-95 -4 4 -25 59 -46 122 -35 102 -54 134 -70 118 -5 -5 61 -206 93 -284 7 -18
19 -33 27 -33 12 0 53 100 71 173 4 15 10 29 14 31 4 3 22 -42 41 -100 44
-133 56 -136 96 -19 l29 86 7 -41 c10 -56 40 -94 93 -120 68 -33 126 -22 182
35 24 23 43 47 43 54 0 20 -38 12 -45 -10 -10 -30 -64 -59 -111 -59 -54 0
-105 35 -120 80 l-12 35 149 3 c147 2 149 3 149 25 0 34 -41 108 -72 131 -33
23 -133 33 -163 15z m125 -34 c32 -16 70 -61 70 -81 0 -11 -26 -14 -125 -14
-137 0 -143 3 -108 57 32 48 108 66 163 38z"/>
<path d="M0 335 l0 -65 1905 0 1905 0 0 65 0 65 -1905 0 -1905 0 0 -65z"/>
</g>
</svg>
